# xmcd
#
# Track frame offsets:
#	150
#	13105
#	20876
#	35309
#	51152
#	62189
#	76360
#	92282
#	103305
#	116576
#	124766
#	134275
#	145468
#
# Disc length: 2335 seconds
#
# Revision: 1
# Processed by: cddbd v1.5.2PL0 Copyright (c) Steve Scherf et al.
# Submitted via: audiograbber 1.83.01
#
DISCID=b5091d0d
DTITLE=Missouri Boatride - Ghost of Carney Branch
DYEAR=2008
DGENRE=Bluegrass
TTITLE0=The Ghost of Carney Branch
TTITLE1=Little Maggie
TTITLE2=Take It Easy
TTITLE3=Little cabin Home on the Hill
TTITLE4=Sittin' On Top of the World
TTITLE5=The First Whippoorwill
TTITLE6=Free Born Man
TTITLE7=Sunny Side of the Mountain
TTITLE8=Ocean Of Diamonds
TTITLE9=I've Just Seen a Face
TTITLE10=Midnight Rider
TTITLE11=Glory Land
TTITLE12=Don't Think Twice 
EXTD=
EXTT0=
EXTT1=
EXTT2=
EXTT3=
EXTT4=
EXTT5=
EXTT6=
EXTT7=
EXTT8=
EXTT9=
EXTT10=
EXTT11=
EXTT12=
PLAYORDER=
